<svg xmlns="http://www.w3.org/2000/svg" viewBox="0 0 256 256" width="256" height="256">
  <defs>
    <linearGradient id="acCrown" x1="0" y1="0" x2="1" y2="1">
      <stop offset="0" stop-color="#fbcfe8"/>
      <stop offset="0.6" stop-color="#ec4899"/>
      <stop offset="1" stop-color="#c026d3"/>
    </linearGradient>
    <linearGradient id="acLit" x1="0" y1="0" x2="0.9" y2="1">
      <stop offset="0" stop-color="#f472b6"/>
      <stop offset="0.55" stop-color="#ec4899"/>
      <stop offset="1" stop-color="#9d174d"/>
    </linearGradient>
    <linearGradient id="acShade" x1="0" y1="0" x2="1" y2="1">
      <stop offset="0" stop-color="#7a1a4a"/>
      <stop offset="0.6" stop-color="#3d0e26"/>
      <stop offset="1" stop-color="#140713"/>
    </linearGradient>
    <radialGradient id="acShine" cx="0.32" cy="0.18" r="0.4">
      <stop offset="0" stop-color="#ffffff" stop-opacity="0.55"/>
      <stop offset="1" stop-color="#ffffff" stop-opacity="0"/>
    </radialGradient>
  </defs>
  <polygon points="88,52 168,52 220,108 128,108 36,108" fill="url(#acCrown)"/>
  <polygon points="36,108 128,108 128,236" fill="url(#acLit)"/>
  <polygon points="220,108 128,108 128,236" fill="url(#acShade)"/>
  <polygon points="88,52 168,52 220,108 128,108 36,108" fill="url(#acShine)"/>
  <line x1="128" y1="108" x2="128" y2="236" stroke="#ffffff" stroke-opacity="0.28" stroke-width="1.5" stroke-linecap="round"/>
  <line x1="88" y1="52" x2="128" y2="108" stroke="#ffffff" stroke-opacity="0.18" stroke-width="1.2" stroke-linecap="round"/>
  <line x1="168" y1="52" x2="128" y2="108" stroke="#ffffff" stroke-opacity="0.1" stroke-width="1.2" stroke-linecap="round"/>
  <line x1="36" y1="108" x2="220" y2="108" stroke="#ffffff" stroke-opacity="0.12" stroke-width="1" stroke-linecap="round"/>
</svg>
